<?xml version="1.0" standalone="no"?>
<!DOCTYPE svg PUBLIC "-//W3C//DTD SVG 20010904//EN"
 "http://www.w3.org/TR/2001/REC-SVG-20010904/DTD/svg10.dtd">
<svg version="1.0" xmlns="http://www.w3.org/2000/svg"
 width="500.000000pt" height="500.000000pt" viewBox="0 0 500.000000 500.000000"
 preserveAspectRatio="xMidYMid meet">

<g transform="translate(0.000000,500.000000) scale(0.100000,-0.100000)"
fill="#000000" stroke="none">
<path d="M0 2500 l0 -2500 2500 0 2500 0 0 2500 0 2500 -2500 0 -2500 0 0
-2500z m1520 655 l0 -135 -175 0 c-110 0 -175 -4 -175 -10 0 -6 65 -10 175
-10 l175 0 0 -130 0 -130 -175 0 -175 0 0 -120 0 -120 -150 0 -150 0 0 395 0
395 325 0 325 0 0 -135z m762 -15 c82 -25 147 -81 185 -158 28 -56 28 -60 31
-269 l3 -213 -60 0 -61 0 0 -130 0 -130 -90 0 -90 0 0 -255 0 -255 -145 0
-145 0 0 255 0 255 -90 0 -90 0 0 130 0 130 -95 0 -95 0 2 318 3 317 138 3
137 3 0 -311 c0 -170 4 -310 9 -310 4 0 11 87 14 193 6 219 15 260 78 331 94
106 220 140 361 96z m698 -1 c58 -15 112 -52 144 -97 26 -37 31 -54 34 -115 2
-59 -1 -78 -17 -104 l-21 -33 -117 0 c-91 0 -114 3 -105 12 30 30 -3 88 -50
88 -24 0 -58 -35 -58 -60 0 -11 9 -29 20 -40 18 -18 33 -20 190 -20 l170 0 0
-136 0 -135 -202 3 c-198 3 -204 4 -259 31 -66 32 -132 99 -162 165 -31 68
-31 198 1 267 70 153 244 223 432 174z m567 -787 c99 -52 154 -129 173 -243 5
-35 10 -135 10 -221 l0 -158 -140 0 -140 0 0 170 c0 157 -2 172 -20 190 -11
11 -24 20 -30 20 -5 0 -19 -9 -30 -20 -18 -18 -20 -33 -20 -190 l0 -170 -140
0 -140 0 0 153 c1 255 25 347 111 421 68 58 128 77 234 73 69 -3 100 -9 132
-25z m691 -2 c63 -27 129 -97 138 -147 12 -62 0 -141 -26 -168 -22 -24 -29
-25 -132 -25 -104 0 -108 1 -98 19 24 46 3 84 -47 84 -28 0 -63 -33 -63 -59 0
-8 9 -23 20 -34 18 -18 33 -20 190 -20 l170 0 0 -135 0 -135 -183 0 c-207 0
-253 9 -328 64 -53 39 -104 112 -120 169 -15 58 -13 151 6 208 30 89 125 174
222 199 63 16 192 5 251 -20z m-1558 -159 c0 -141 3 -172 16 -185 19 -20 35
-20 60 -2 17 13 19 30 22 185 l4 171 134 0 134 0 0 -198 c0 -242 -7 -271 -89
-353 -70 -69 -133 -94 -241 -93 -132 0 -240 68 -294 183 -19 41 -21 67 -24
254 l-3 207 140 0 141 0 0 -169z"/>
<path d="M2139 2863 c-10 -12 -15 -59 -17 -180 l-3 -163 50 0 51 0 0 164 c0
136 -3 167 -16 180 -20 21 -48 20 -65 -1z"/>
</g>
</svg>
